<svg width="26" height="26" viewBox="0 0 26 26" fill="none" xmlns="http://www.w3.org/2000/svg">
<path d="M6.80469 1.82812C5.34219 1.82812 4.16406 3.00625 4.16406 4.46875V20.7188C4.16406 22.1812 5.34219 23.3594 6.80469 23.3594H19.1953C20.6578 23.3594 21.8359 22.1812 21.8359 20.7188V4.46875C21.8359 3.00625 20.6578 1.82812 19.1953 1.82812H6.80469ZM6.80469 3.04688H19.1953C19.9875 3.04688 20.6172 3.67656 20.6172 4.46875V20.7188C20.6172 21.5109 19.9875 22.1406 19.1953 22.1406H6.80469C6.0125 22.1406 5.38281 21.5109 5.38281 20.7188V4.46875C5.38281 3.67656 6.0125 3.04688 6.80469 3.04688ZM8.22656 6.29688C7.88125 6.29688 7.61719 6.56094 7.61719 6.90625C7.61719 7.25156 7.88125 7.51562 8.22656 7.51562H17.3672C17.7125 7.51562 17.9766 7.25156 17.9766 6.90625C17.9766 6.56094 17.7125 6.29688 17.3672 6.29688H8.22656ZM8.22656 9.34375C7.88125 9.34375 7.61719 9.60781 7.61719 9.95312C7.61719 10.2984 7.88125 10.5625 8.22656 10.5625H17.3672C17.7125 10.5625 17.9766 10.2984 17.9766 9.95312C17.9766 9.60781 17.7125 9.34375 17.3672 9.34375H8.22656ZM8.22656 12.3906C7.88125 12.3906 7.61719 12.6547 7.61719 13C7.61719 13.3453 7.88125 13.6094 8.22656 13.6094H12.3906C12.7359 13.6094 13 13.3453 13 13C13 12.6547 12.7359 12.3906 12.3906 12.3906H8.22656ZM14.4258 16.375C14.2314 16.3773 14.041 16.471 13.9141 16.636L12.7766 18.3626L12.0657 17.4283C11.8626 17.1642 11.4764 17.103 11.2123 17.3061C10.9483 17.5092 10.8874 17.8954 11.0905 18.1595L12.2891 19.7642C12.4109 19.9267 12.5938 20.0078 12.7969 20.0078H12.8171C13.0202 20.0078 13.203 19.8859 13.3249 19.7234L14.9297 17.3061C15.1125 17.042 15.0311 16.6562 14.767 16.4734C14.6604 16.4048 14.5425 16.3735 14.4258 16.375Z" fill="white"/>
</svg>
