<svg width="26" height="26" viewBox="0 0 26 26" fill="none" xmlns="http://www.w3.org/2000/svg">
<path d="M2.84375 2.64062C1.38125 2.64062 0.203125 3.81875 0.203125 5.28125V21.125C0.203125 22.5875 1.38125 23.7656 2.84375 23.7656H23.1562C24.6187 23.7656 25.7969 22.5875 25.7969 21.125V17.7937C25.7969 17.4484 25.5328 17.1843 25.1875 17.1843C24.8422 17.1843 24.5781 17.4484 24.5781 17.7937V21.125C24.5781 21.9172 23.9484 22.5469 23.1562 22.5469H7.71875C10.0344 15.3562 16.0266 12.5125 25.0657 14.3203C25.1063 14.3203 25.1469 14.3405 25.1875 14.3405C25.5328 14.3405 25.7969 14.0765 25.7969 13.7312V5.28125C25.7969 3.81875 24.6187 2.64062 23.1562 2.64062H2.84375ZM2.84375 3.85938H23.1562C23.9484 3.85938 24.5781 4.48906 24.5781 5.28125V12.9798C15.2141 11.3345 8.81578 14.7063 6.45953 22.5469H2.84375C2.05156 22.5469 1.42188 21.9172 1.42188 21.125V5.28125C1.42188 4.48906 2.05156 3.85938 2.84375 3.85938ZM7.3125 6.29688C6.39844 6.29688 5.525 6.6625 4.875 7.3125C3.53437 8.65312 3.53437 10.8468 4.875 12.2077C5.525 12.8577 6.39844 13.2234 7.3125 13.2234C8.22656 13.2234 9.1 12.8577 9.75 12.2077C11.0906 10.8671 11.0906 8.67344 9.75 7.3125C9.1 6.6625 8.22656 6.29688 7.3125 6.29688ZM7.3125 7.51562C7.92188 7.51562 8.47047 7.7389 8.89703 8.16547C9.77047 9.0389 9.77047 10.4611 8.89703 11.3345C8.47047 11.7611 7.90156 11.9844 7.3125 11.9844C6.72344 11.9844 6.15453 11.7611 5.72797 11.3345C4.85453 10.4611 4.85453 9.0389 5.72797 8.16547C6.15453 7.7389 6.70312 7.51562 7.3125 7.51562Z" fill="#1D1D1D"/>
</svg>
