<svg width="26" height="26" viewBox="0 0 26 26" fill="none" xmlns="http://www.w3.org/2000/svg">
<path d="M3.72289 4C3.31325 4 3 4.31667 3 4.73077V22.2692C3 22.6833 3.31325 23 3.72289 23H6.13253C6.54217 23 6.85542 22.6833 6.85542 22.2692C6.85542 21.8551 6.54217 21.5385 6.13253 21.5385H4.44578V10.3333H9.26506C9.6747 10.3333 9.98795 10.0167 9.98795 9.60256C9.98795 9.18846 9.6747 8.87179 9.26506 8.87179H4.44578V5.46154H14.0843C14.494 5.46154 14.8072 5.14487 14.8072 4.73077C14.8072 4.31667 14.494 4 14.0843 4H3.72289ZM14.0843 8.87179C13.6747 8.87179 13.3614 9.18846 13.3614 9.60256C13.3614 10.0167 13.6747 10.3333 14.0843 10.3333H21.5542V21.5385H14.8072V13.7436C14.8072 13.3295 14.494 13.0128 14.0843 13.0128C13.6747 13.0128 13.3614 13.3295 13.3614 13.7436V21.5385H10.9518C10.5422 21.5385 10.2289 21.8551 10.2289 22.2692C10.2289 22.6833 10.5422 23 10.9518 23H22.2771C22.6867 23 23 22.6833 23 22.2692V9.60256C23 9.18846 22.6867 8.87179 22.2771 8.87179H14.0843Z" fill="white"/>
</svg>
